<mxfile host="app.diagrams.net" modified="2021-12-22T12:16:58.246Z" agent="5.0 (Macintosh; Intel Mac OS X 10_15_7) AppleWebKit/537.36 (KHTML, like Gecko) Chrome/96.0.4664.110 Safari/537.36" etag="04CYxxUwF2C8eUlcMV6e" version="16.0.3" type="github">
  <diagram id="C5RBs43oDa-KdzZeNtuy" name="Page-1">
    <mxGraphModel dx="2253" dy="803" grid="1" gridSize="10" guides="1" tooltips="1" connect="1" arrows="1" fold="1" page="1" pageScale="1" pageWidth="827" pageHeight="1169" math="0" shadow="0">
      <root>
        <mxCell id="WIyWlLk6GJQsqaUBKTNV-0" />
        <mxCell id="WIyWlLk6GJQsqaUBKTNV-1" parent="WIyWlLk6GJQsqaUBKTNV-0" />
        <mxCell id="WIyWlLk6GJQsqaUBKTNV-2" value="" style="rounded=0;html=1;jettySize=auto;orthogonalLoop=1;fontSize=11;endArrow=block;endFill=0;endSize=8;strokeWidth=1;shadow=0;labelBackgroundColor=none;edgeStyle=orthogonalEdgeStyle;entryX=0.5;entryY=0;entryDx=0;entryDy=0;" parent="WIyWlLk6GJQsqaUBKTNV-1" source="WIyWlLk6GJQsqaUBKTNV-3" target="veHXGxF6ui8OIQlb3t_M-9" edge="1">
          <mxGeometry relative="1" as="geometry">
            <mxPoint x="387" y="460" as="targetPoint" />
          </mxGeometry>
        </mxCell>
        <mxCell id="WIyWlLk6GJQsqaUBKTNV-3" value="遍历&lt;span&gt;EXPRESS_&lt;br&gt;CA_STATUS_TMS&lt;/span&gt;" style="rounded=1;whiteSpace=wrap;html=1;fontSize=12;glass=0;strokeWidth=1;shadow=0;" parent="WIyWlLk6GJQsqaUBKTNV-1" vertex="1">
          <mxGeometry x="327" y="345" width="120" height="40" as="geometry" />
        </mxCell>
        <mxCell id="WIyWlLk6GJQsqaUBKTNV-4" value="&lt;span style=&quot;color: rgb(0 , 128 , 0) ; font-size: 12px ; background-color: rgb(255 , 255 , 255)&quot;&gt;95_1，&lt;/span&gt;&lt;span style=&quot;color: rgb(0 , 128 , 0) ; font-size: 12px ; background-color: rgb(255 , 255 , 255)&quot;&gt;95_2已签收&lt;/span&gt;" style="rounded=0;html=1;jettySize=auto;orthogonalLoop=1;fontSize=11;endArrow=block;endFill=0;endSize=8;strokeWidth=1;shadow=0;labelBackgroundColor=none;edgeStyle=orthogonalEdgeStyle;" parent="WIyWlLk6GJQsqaUBKTNV-1" source="WIyWlLk6GJQsqaUBKTNV-6" target="WIyWlLk6GJQsqaUBKTNV-10" edge="1">
          <mxGeometry y="20" relative="1" as="geometry">
            <mxPoint as="offset" />
          </mxGeometry>
        </mxCell>
        <mxCell id="WIyWlLk6GJQsqaUBKTNV-5" value="不是发运或者签收" style="edgeStyle=orthogonalEdgeStyle;rounded=0;html=1;jettySize=auto;orthogonalLoop=1;fontSize=11;endArrow=block;endFill=0;endSize=8;strokeWidth=1;shadow=0;labelBackgroundColor=none;" parent="WIyWlLk6GJQsqaUBKTNV-1" source="WIyWlLk6GJQsqaUBKTNV-6" target="WIyWlLk6GJQsqaUBKTNV-7" edge="1">
          <mxGeometry y="10" relative="1" as="geometry">
            <mxPoint as="offset" />
          </mxGeometry>
        </mxCell>
        <mxCell id="veHXGxF6ui8OIQlb3t_M-14" value="&lt;p class=&quot;p1&quot; style=&quot;margin: 0px ; font-stretch: normal ; font-size: 12px ; line-height: normal ; color: rgb(0 , 128 , 0)&quot;&gt;&lt;br&gt;&lt;/p&gt;" style="edgeLabel;html=1;align=center;verticalAlign=middle;resizable=0;points=[];" vertex="1" connectable="0" parent="WIyWlLk6GJQsqaUBKTNV-5">
          <mxGeometry x="-0.1327" y="12" relative="1" as="geometry">
            <mxPoint as="offset" />
          </mxGeometry>
        </mxCell>
        <mxCell id="WIyWlLk6GJQsqaUBKTNV-6" value="发运状态判断）" style="rhombus;whiteSpace=wrap;html=1;shadow=0;fontFamily=Helvetica;fontSize=12;align=center;strokeWidth=1;spacing=6;spacingTop=-4;" parent="WIyWlLk6GJQsqaUBKTNV-1" vertex="1">
          <mxGeometry x="337" y="546" width="100" height="80" as="geometry" />
        </mxCell>
        <mxCell id="veHXGxF6ui8OIQlb3t_M-51" style="edgeStyle=orthogonalEdgeStyle;rounded=0;orthogonalLoop=1;jettySize=auto;html=1;entryX=0;entryY=0.5;entryDx=0;entryDy=0;" edge="1" parent="WIyWlLk6GJQsqaUBKTNV-1" source="WIyWlLk6GJQsqaUBKTNV-7" target="veHXGxF6ui8OIQlb3t_M-50">
          <mxGeometry relative="1" as="geometry" />
        </mxCell>
        <mxCell id="WIyWlLk6GJQsqaUBKTNV-7" value="&lt;p class=&quot;p1&quot; style=&quot;margin: 0px ; font-stretch: normal ; line-height: normal ; color: rgb(0 , 128 , 0)&quot;&gt;&lt;span class=&quot;s1&quot; style=&quot;color: rgb(0 , 0 , 0)&quot;&gt;CARRIERID &lt;/span&gt;&lt;span class=&quot;s2&quot; style=&quot;color: rgb(128 , 0 , 0)&quot;&gt;&lt;b&gt;in&lt;/b&gt;&lt;/span&gt;&lt;span class=&quot;s1&quot; style=&quot;color: rgb(0 , 0 , 0)&quot;&gt; (&lt;/span&gt;&#39;700011&#39;&lt;span class=&quot;s1&quot; style=&quot;color: rgb(0 , 0 , 0)&quot;&gt;,&lt;/span&gt;&#39;700005&#39;&lt;span class=&quot;s1&quot; style=&quot;color: rgb(0 , 0 , 0)&quot;&gt;,&lt;/span&gt;&#39;700006&#39;&lt;span class=&quot;s1&quot; style=&quot;color: rgb(0 , 0 , 0)&quot;&gt;)&lt;/span&gt;&lt;/p&gt;&lt;p class=&quot;p1&quot; style=&quot;margin: 0px ; font-stretch: normal ; line-height: normal&quot;&gt;描述信息存在延误信息插入延误原因&lt;/p&gt;&lt;p class=&quot;p1&quot; style=&quot;margin: 0px ; font-stretch: normal ; line-height: normal&quot;&gt;&lt;span class=&quot;s1&quot; style=&quot;color: rgb(128 , 0 , 0)&quot;&gt;&lt;b&gt;insert&lt;/b&gt;&lt;/span&gt; &lt;span class=&quot;s1&quot; style=&quot;color: rgb(128 , 0 , 0)&quot;&gt;&lt;b&gt;into&lt;/b&gt;&lt;/span&gt; DOC_BL_DELAY_ORDER&lt;/p&gt;" style="rounded=1;whiteSpace=wrap;html=1;fontSize=12;glass=0;strokeWidth=1;shadow=0;" parent="WIyWlLk6GJQsqaUBKTNV-1" vertex="1">
          <mxGeometry x="550" y="548" width="190" height="76" as="geometry" />
        </mxCell>
        <mxCell id="WIyWlLk6GJQsqaUBKTNV-8" value="No" style="rounded=0;html=1;jettySize=auto;orthogonalLoop=1;fontSize=11;endArrow=block;endFill=0;endSize=8;strokeWidth=1;shadow=0;labelBackgroundColor=none;edgeStyle=orthogonalEdgeStyle;" parent="WIyWlLk6GJQsqaUBKTNV-1" source="WIyWlLk6GJQsqaUBKTNV-10" target="WIyWlLk6GJQsqaUBKTNV-11" edge="1">
          <mxGeometry x="0.3333" y="20" relative="1" as="geometry">
            <mxPoint as="offset" />
          </mxGeometry>
        </mxCell>
        <mxCell id="WIyWlLk6GJQsqaUBKTNV-9" value="Yes" style="edgeStyle=orthogonalEdgeStyle;rounded=0;html=1;jettySize=auto;orthogonalLoop=1;fontSize=11;endArrow=block;endFill=0;endSize=8;strokeWidth=1;shadow=0;labelBackgroundColor=none;" parent="WIyWlLk6GJQsqaUBKTNV-1" source="WIyWlLk6GJQsqaUBKTNV-10" target="WIyWlLk6GJQsqaUBKTNV-12" edge="1">
          <mxGeometry y="10" relative="1" as="geometry">
            <mxPoint as="offset" />
          </mxGeometry>
        </mxCell>
        <mxCell id="WIyWlLk6GJQsqaUBKTNV-10" value="是否干线运输（tsk_type=MM）" style="rhombus;whiteSpace=wrap;html=1;shadow=0;fontFamily=Helvetica;fontSize=12;align=center;strokeWidth=1;spacing=6;spacingTop=-4;" parent="WIyWlLk6GJQsqaUBKTNV-1" vertex="1">
          <mxGeometry x="337" y="718" width="100" height="80" as="geometry" />
        </mxCell>
        <mxCell id="veHXGxF6ui8OIQlb3t_M-35" style="edgeStyle=orthogonalEdgeStyle;rounded=0;orthogonalLoop=1;jettySize=auto;html=1;exitX=1;exitY=0.5;exitDx=0;exitDy=0;entryX=0;entryY=0.5;entryDx=0;entryDy=0;" edge="1" parent="WIyWlLk6GJQsqaUBKTNV-1" source="WIyWlLk6GJQsqaUBKTNV-11" target="veHXGxF6ui8OIQlb3t_M-32">
          <mxGeometry relative="1" as="geometry" />
        </mxCell>
        <mxCell id="WIyWlLk6GJQsqaUBKTNV-11" value="修改DOC_BL_ORDER_&lt;br&gt;HEADER_TRACE&lt;br&gt;签收时间&lt;span&gt;delivery_time&lt;/span&gt;" style="rounded=1;whiteSpace=wrap;html=1;fontSize=12;glass=0;strokeWidth=1;shadow=0;" parent="WIyWlLk6GJQsqaUBKTNV-1" vertex="1">
          <mxGeometry x="510" y="727" width="133" height="62" as="geometry" />
        </mxCell>
        <mxCell id="veHXGxF6ui8OIQlb3t_M-21" style="edgeStyle=orthogonalEdgeStyle;rounded=0;orthogonalLoop=1;jettySize=auto;html=1;entryX=0.5;entryY=0;entryDx=0;entryDy=0;" edge="1" parent="WIyWlLk6GJQsqaUBKTNV-1" source="WIyWlLk6GJQsqaUBKTNV-12" target="veHXGxF6ui8OIQlb3t_M-20">
          <mxGeometry relative="1" as="geometry" />
        </mxCell>
        <mxCell id="WIyWlLk6GJQsqaUBKTNV-12" value="修改DOC_BL_ORDER_&lt;br&gt;HEADER_TRACE&lt;br&gt;到达时间&lt;span&gt;arrival_time&lt;/span&gt;" style="rounded=1;whiteSpace=wrap;html=1;fontSize=12;glass=0;strokeWidth=1;shadow=0;" parent="WIyWlLk6GJQsqaUBKTNV-1" vertex="1">
          <mxGeometry x="320" y="860" width="133" height="52" as="geometry" />
        </mxCell>
        <mxCell id="veHXGxF6ui8OIQlb3t_M-60" style="edgeStyle=orthogonalEdgeStyle;rounded=0;orthogonalLoop=1;jettySize=auto;html=1;entryX=0;entryY=0.5;entryDx=0;entryDy=0;" edge="1" parent="WIyWlLk6GJQsqaUBKTNV-1" source="veHXGxF6ui8OIQlb3t_M-0" target="veHXGxF6ui8OIQlb3t_M-59">
          <mxGeometry relative="1" as="geometry" />
        </mxCell>
        <mxCell id="veHXGxF6ui8OIQlb3t_M-0" value="遍历&lt;span&gt;EXPRESS_CA_&lt;br&gt;STATUS_HEADER&lt;/span&gt;" style="rounded=1;whiteSpace=wrap;html=1;fontSize=12;glass=0;strokeWidth=1;shadow=0;" vertex="1" parent="WIyWlLk6GJQsqaUBKTNV-1">
          <mxGeometry x="323" y="239" width="130" height="57" as="geometry" />
        </mxCell>
        <mxCell id="veHXGxF6ui8OIQlb3t_M-1" value="" style="rounded=0;html=1;jettySize=auto;orthogonalLoop=1;fontSize=11;endArrow=block;endFill=0;endSize=8;strokeWidth=1;shadow=0;labelBackgroundColor=none;edgeStyle=orthogonalEdgeStyle;" edge="1" parent="WIyWlLk6GJQsqaUBKTNV-1">
          <mxGeometry relative="1" as="geometry">
            <mxPoint x="386.5" y="296" as="sourcePoint" />
            <mxPoint x="386.5" y="346" as="targetPoint" />
          </mxGeometry>
        </mxCell>
        <mxCell id="veHXGxF6ui8OIQlb3t_M-9" value="查询坤合tms状态（发运，签收。。。）" style="rounded=1;whiteSpace=wrap;html=1;fontSize=12;glass=0;strokeWidth=1;shadow=0;" vertex="1" parent="WIyWlLk6GJQsqaUBKTNV-1">
          <mxGeometry x="327" y="431" width="120" height="40" as="geometry" />
        </mxCell>
        <mxCell id="veHXGxF6ui8OIQlb3t_M-11" value="70已发运" style="rounded=0;html=1;jettySize=auto;orthogonalLoop=1;fontSize=11;endArrow=block;endFill=0;endSize=8;strokeWidth=1;shadow=0;labelBackgroundColor=none;edgeStyle=orthogonalEdgeStyle;entryX=1;entryY=0.5;entryDx=0;entryDy=0;exitX=0;exitY=0.5;exitDx=0;exitDy=0;" edge="1" parent="WIyWlLk6GJQsqaUBKTNV-1" source="WIyWlLk6GJQsqaUBKTNV-6">
          <mxGeometry relative="1" as="geometry">
            <mxPoint x="250" y="586" as="targetPoint" />
            <mxPoint x="333" y="580" as="sourcePoint" />
          </mxGeometry>
        </mxCell>
        <mxCell id="veHXGxF6ui8OIQlb3t_M-12" value="" style="rounded=0;html=1;jettySize=auto;orthogonalLoop=1;fontSize=11;endArrow=block;endFill=0;endSize=8;strokeWidth=1;shadow=0;labelBackgroundColor=none;edgeStyle=orthogonalEdgeStyle;" edge="1" parent="WIyWlLk6GJQsqaUBKTNV-1">
          <mxGeometry relative="1" as="geometry">
            <mxPoint x="387.5" y="546" as="targetPoint" />
            <mxPoint x="387.5" y="471" as="sourcePoint" />
          </mxGeometry>
        </mxCell>
        <mxCell id="veHXGxF6ui8OIQlb3t_M-18" style="edgeStyle=orthogonalEdgeStyle;rounded=0;orthogonalLoop=1;jettySize=auto;html=1;exitX=0;exitY=0.5;exitDx=0;exitDy=0;" edge="1" parent="WIyWlLk6GJQsqaUBKTNV-1" source="veHXGxF6ui8OIQlb3t_M-13" target="veHXGxF6ui8OIQlb3t_M-17">
          <mxGeometry relative="1" as="geometry" />
        </mxCell>
        <mxCell id="veHXGxF6ui8OIQlb3t_M-13" value="修改&lt;span&gt;DOC_BL_ORDER_&lt;br&gt;HEADER_TRACE&lt;br&gt;发运时间&lt;/span&gt;&lt;span&gt;outbound_time&lt;/span&gt;" style="rounded=1;whiteSpace=wrap;html=1;fontSize=12;glass=0;strokeWidth=1;shadow=0;" vertex="1" parent="WIyWlLk6GJQsqaUBKTNV-1">
          <mxGeometry x="95" y="553" width="153" height="65" as="geometry" />
        </mxCell>
        <mxCell id="veHXGxF6ui8OIQlb3t_M-53" style="edgeStyle=orthogonalEdgeStyle;rounded=0;orthogonalLoop=1;jettySize=auto;html=1;entryX=0.5;entryY=0;entryDx=0;entryDy=0;" edge="1" parent="WIyWlLk6GJQsqaUBKTNV-1" source="veHXGxF6ui8OIQlb3t_M-17" target="veHXGxF6ui8OIQlb3t_M-29">
          <mxGeometry relative="1" as="geometry" />
        </mxCell>
        <mxCell id="veHXGxF6ui8OIQlb3t_M-54" value="Yes" style="edgeLabel;html=1;align=center;verticalAlign=middle;resizable=0;points=[];" vertex="1" connectable="0" parent="veHXGxF6ui8OIQlb3t_M-53">
          <mxGeometry x="-0.3449" y="-4" relative="1" as="geometry">
            <mxPoint as="offset" />
          </mxGeometry>
        </mxCell>
        <mxCell id="veHXGxF6ui8OIQlb3t_M-55" value="No" style="edgeStyle=orthogonalEdgeStyle;rounded=0;orthogonalLoop=1;jettySize=auto;html=1;entryX=1;entryY=0.5;entryDx=0;entryDy=0;" edge="1" parent="WIyWlLk6GJQsqaUBKTNV-1" source="veHXGxF6ui8OIQlb3t_M-17" target="veHXGxF6ui8OIQlb3t_M-52">
          <mxGeometry relative="1" as="geometry" />
        </mxCell>
        <mxCell id="veHXGxF6ui8OIQlb3t_M-17" value="&lt;p class=&quot;p1&quot; style=&quot;margin: 0px ; font-stretch: normal ; line-height: normal ; color: rgb(0 , 128 , 0)&quot;&gt;&lt;span class=&quot;s1&quot; style=&quot;color: rgb(0 , 0 , 0)&quot;&gt;CARRIERID&amp;nbsp;&lt;/span&gt;&lt;/p&gt;&lt;p class=&quot;p1&quot; style=&quot;margin: 0px ; font-stretch: normal ; line-height: normal ; color: rgb(0 , 128 , 0)&quot;&gt;&lt;span class=&quot;s2&quot; style=&quot;color: rgb(128 , 0 , 0)&quot;&gt;&lt;b&gt;in&lt;/b&gt;&lt;/span&gt;&lt;span class=&quot;s1&quot; style=&quot;color: rgb(0 , 0 , 0)&quot;&gt;&amp;nbsp;(&amp;nbsp;&lt;/span&gt;&#39;700011&#39;&lt;span class=&quot;s1&quot; style=&quot;color: rgb(0 , 0 , 0)&quot;&gt;,&lt;/span&gt;&#39;700306&#39;&lt;span class=&quot;s1&quot; style=&quot;color: rgb(0 , 0 , 0)&quot;&gt;,&lt;/span&gt;&#39;700006&#39;&lt;span class=&quot;s1&quot; style=&quot;color: rgb(0 , 0 , 0)&quot;&gt;)&lt;/span&gt;&lt;/p&gt;&lt;p class=&quot;p1&quot; style=&quot;margin: 0px ; font-stretch: normal ; line-height: normal ; color: rgb(0 , 128 , 0)&quot;&gt;&lt;br&gt;&lt;/p&gt;" style="rhombus;whiteSpace=wrap;html=1;shadow=0;fontFamily=Helvetica;fontSize=12;align=center;strokeWidth=1;spacing=6;spacingTop=-4;" vertex="1" parent="WIyWlLk6GJQsqaUBKTNV-1">
          <mxGeometry x="-150" y="533" width="180" height="105" as="geometry" />
        </mxCell>
        <mxCell id="veHXGxF6ui8OIQlb3t_M-30" style="edgeStyle=orthogonalEdgeStyle;rounded=0;orthogonalLoop=1;jettySize=auto;html=1;entryX=1;entryY=0.5;entryDx=0;entryDy=0;" edge="1" parent="WIyWlLk6GJQsqaUBKTNV-1" source="veHXGxF6ui8OIQlb3t_M-19" target="veHXGxF6ui8OIQlb3t_M-29">
          <mxGeometry relative="1" as="geometry" />
        </mxCell>
        <mxCell id="veHXGxF6ui8OIQlb3t_M-19" value="&lt;p class=&quot;p1&quot; style=&quot;margin: 0px ; font-stretch: normal ; line-height: normal&quot;&gt;更新签收状态（&lt;span&gt;spdoc_bl_delivery2&lt;/span&gt;&lt;span&gt;）&lt;/span&gt;&lt;/p&gt;" style="rounded=1;whiteSpace=wrap;html=1;fontSize=12;glass=0;strokeWidth=1;shadow=0;" vertex="1" parent="WIyWlLk6GJQsqaUBKTNV-1">
          <mxGeometry x="43" y="967.5" width="153" height="65" as="geometry" />
        </mxCell>
        <mxCell id="veHXGxF6ui8OIQlb3t_M-22" style="edgeStyle=orthogonalEdgeStyle;rounded=0;orthogonalLoop=1;jettySize=auto;html=1;entryX=1;entryY=0.5;entryDx=0;entryDy=0;" edge="1" parent="WIyWlLk6GJQsqaUBKTNV-1" source="veHXGxF6ui8OIQlb3t_M-20" target="veHXGxF6ui8OIQlb3t_M-19">
          <mxGeometry relative="1" as="geometry" />
        </mxCell>
        <mxCell id="veHXGxF6ui8OIQlb3t_M-25" style="edgeStyle=orthogonalEdgeStyle;rounded=0;orthogonalLoop=1;jettySize=auto;html=1;" edge="1" parent="WIyWlLk6GJQsqaUBKTNV-1" source="veHXGxF6ui8OIQlb3t_M-20" target="veHXGxF6ui8OIQlb3t_M-24">
          <mxGeometry relative="1" as="geometry" />
        </mxCell>
        <mxCell id="veHXGxF6ui8OIQlb3t_M-26" value="No" style="edgeLabel;html=1;align=center;verticalAlign=middle;resizable=0;points=[];" vertex="1" connectable="0" parent="veHXGxF6ui8OIQlb3t_M-25">
          <mxGeometry x="-0.3333" y="-1" relative="1" as="geometry">
            <mxPoint as="offset" />
          </mxGeometry>
        </mxCell>
        <mxCell id="veHXGxF6ui8OIQlb3t_M-20" value="是否德邦或者顺丰&lt;span class=&quot;s1&quot;&gt;CARRIERID &lt;/span&gt;&lt;span class=&quot;s2&quot; style=&quot;color: rgb(128 , 0 , 0)&quot;&gt;&lt;b&gt;in&lt;/b&gt;&lt;/span&gt;&lt;span class=&quot;s1&quot;&gt; ( &lt;/span&gt;&lt;span style=&quot;color: rgb(0 , 128 , 0)&quot;&gt;&#39;700011&#39;&lt;/span&gt;&lt;span class=&quot;s1&quot;&gt;,&lt;/span&gt;&lt;span style=&quot;color: rgb(0 , 128 , 0)&quot;&gt;&#39;700006&#39;&lt;/span&gt;&lt;span class=&quot;s1&quot;&gt;)&lt;/span&gt;" style="rhombus;whiteSpace=wrap;html=1;shadow=0;fontFamily=Helvetica;fontSize=12;align=center;strokeWidth=1;spacing=6;spacingTop=-4;" vertex="1" parent="WIyWlLk6GJQsqaUBKTNV-1">
          <mxGeometry x="336.5" y="960" width="100" height="80" as="geometry" />
        </mxCell>
        <mxCell id="veHXGxF6ui8OIQlb3t_M-23" value="Yes" style="text;html=1;align=center;verticalAlign=middle;resizable=0;points=[];autosize=1;strokeColor=none;fillColor=none;" vertex="1" parent="WIyWlLk6GJQsqaUBKTNV-1">
          <mxGeometry x="230" y="980" width="40" height="20" as="geometry" />
        </mxCell>
        <mxCell id="veHXGxF6ui8OIQlb3t_M-27" style="edgeStyle=orthogonalEdgeStyle;rounded=0;orthogonalLoop=1;jettySize=auto;html=1;entryX=0.5;entryY=1;entryDx=0;entryDy=0;" edge="1" parent="WIyWlLk6GJQsqaUBKTNV-1" source="veHXGxF6ui8OIQlb3t_M-24" target="veHXGxF6ui8OIQlb3t_M-19">
          <mxGeometry relative="1" as="geometry" />
        </mxCell>
        <mxCell id="veHXGxF6ui8OIQlb3t_M-28" value="Yes" style="edgeLabel;html=1;align=center;verticalAlign=middle;resizable=0;points=[];" vertex="1" connectable="0" parent="veHXGxF6ui8OIQlb3t_M-27">
          <mxGeometry x="-0.4052" y="-2" relative="1" as="geometry">
            <mxPoint x="1" as="offset" />
          </mxGeometry>
        </mxCell>
        <mxCell id="veHXGxF6ui8OIQlb3t_M-24" value="是否全部更新到达时间" style="rhombus;whiteSpace=wrap;html=1;shadow=0;fontFamily=Helvetica;fontSize=12;align=center;strokeWidth=1;spacing=6;spacingTop=-4;" vertex="1" parent="WIyWlLk6GJQsqaUBKTNV-1">
          <mxGeometry x="336.5" y="1100" width="100" height="80" as="geometry" />
        </mxCell>
        <mxCell id="veHXGxF6ui8OIQlb3t_M-29" value="&lt;p class=&quot;p1&quot; style=&quot;margin: 0px ; font-stretch: normal ; line-height: normal&quot;&gt;&lt;span class=&quot;s1&quot; style=&quot;color: rgb(128 , 0 , 0)&quot;&gt;&lt;b&gt;Insert&lt;/b&gt;&lt;/span&gt; &lt;span class=&quot;s1&quot; style=&quot;color: rgb(128 , 0 , 0)&quot;&gt;&lt;b&gt;Into&lt;/b&gt;&lt;/span&gt; tsk_tracking_log&lt;/p&gt;" style="rounded=1;whiteSpace=wrap;html=1;fontSize=12;glass=0;strokeWidth=1;shadow=0;" vertex="1" parent="WIyWlLk6GJQsqaUBKTNV-1">
          <mxGeometry x="-303" y="967.5" width="153" height="65" as="geometry" />
        </mxCell>
        <mxCell id="veHXGxF6ui8OIQlb3t_M-44" style="edgeStyle=orthogonalEdgeStyle;rounded=0;orthogonalLoop=1;jettySize=auto;html=1;" edge="1" parent="WIyWlLk6GJQsqaUBKTNV-1" source="veHXGxF6ui8OIQlb3t_M-31">
          <mxGeometry relative="1" as="geometry">
            <mxPoint x="770" y="1030" as="targetPoint" />
          </mxGeometry>
        </mxCell>
        <mxCell id="veHXGxF6ui8OIQlb3t_M-31" value="&lt;p class=&quot;p1&quot; style=&quot;margin: 0px ; font-stretch: normal ; line-height: normal&quot;&gt;更新到达状态sptsk2_list_task_arrival2&lt;/p&gt;" style="rounded=1;whiteSpace=wrap;html=1;fontSize=12;glass=0;strokeWidth=1;shadow=0;" vertex="1" parent="WIyWlLk6GJQsqaUBKTNV-1">
          <mxGeometry x="616.5" y="890" width="306.5" height="50" as="geometry" />
        </mxCell>
        <mxCell id="veHXGxF6ui8OIQlb3t_M-41" value="Yes" style="edgeStyle=orthogonalEdgeStyle;rounded=0;orthogonalLoop=1;jettySize=auto;html=1;" edge="1" parent="WIyWlLk6GJQsqaUBKTNV-1" source="veHXGxF6ui8OIQlb3t_M-32" target="veHXGxF6ui8OIQlb3t_M-31">
          <mxGeometry relative="1" as="geometry" />
        </mxCell>
        <mxCell id="veHXGxF6ui8OIQlb3t_M-42" style="edgeStyle=orthogonalEdgeStyle;rounded=0;orthogonalLoop=1;jettySize=auto;html=1;entryX=0;entryY=0.5;entryDx=0;entryDy=0;" edge="1" parent="WIyWlLk6GJQsqaUBKTNV-1" source="veHXGxF6ui8OIQlb3t_M-32" target="veHXGxF6ui8OIQlb3t_M-33">
          <mxGeometry relative="1" as="geometry" />
        </mxCell>
        <mxCell id="veHXGxF6ui8OIQlb3t_M-43" value="No" style="edgeLabel;html=1;align=center;verticalAlign=middle;resizable=0;points=[];" vertex="1" connectable="0" parent="veHXGxF6ui8OIQlb3t_M-42">
          <mxGeometry x="0.2418" y="3" relative="1" as="geometry">
            <mxPoint as="offset" />
          </mxGeometry>
        </mxCell>
        <mxCell id="veHXGxF6ui8OIQlb3t_M-32" value="是否德邦或者顺丰&lt;span class=&quot;s1&quot;&gt;CARRIERID &lt;/span&gt;&lt;span class=&quot;s2&quot; style=&quot;color: rgb(128 , 0 , 0)&quot;&gt;&lt;b&gt;in&lt;/b&gt;&lt;/span&gt;&lt;span class=&quot;s1&quot;&gt; ( &lt;/span&gt;&lt;span style=&quot;color: rgb(0 , 128 , 0)&quot;&gt;&#39;700011&#39;&lt;/span&gt;&lt;span class=&quot;s1&quot;&gt;,&lt;/span&gt;&lt;span style=&quot;color: rgb(0 , 128 , 0)&quot;&gt;&#39;700006&#39;&lt;/span&gt;&lt;span class=&quot;s1&quot;&gt;)&lt;/span&gt;" style="rhombus;whiteSpace=wrap;html=1;shadow=0;fontFamily=Helvetica;fontSize=12;align=center;strokeWidth=1;spacing=6;spacingTop=-4;" vertex="1" parent="WIyWlLk6GJQsqaUBKTNV-1">
          <mxGeometry x="720" y="718" width="100" height="80" as="geometry" />
        </mxCell>
        <mxCell id="veHXGxF6ui8OIQlb3t_M-49" value="Yes" style="edgeStyle=orthogonalEdgeStyle;rounded=0;orthogonalLoop=1;jettySize=auto;html=1;entryX=1;entryY=0.5;entryDx=0;entryDy=0;" edge="1" parent="WIyWlLk6GJQsqaUBKTNV-1" source="veHXGxF6ui8OIQlb3t_M-33" target="veHXGxF6ui8OIQlb3t_M-31">
          <mxGeometry relative="1" as="geometry" />
        </mxCell>
        <mxCell id="veHXGxF6ui8OIQlb3t_M-33" value="是否全部更新到达时间" style="rhombus;whiteSpace=wrap;html=1;shadow=0;fontFamily=Helvetica;fontSize=12;align=center;strokeWidth=1;spacing=6;spacingTop=-4;" vertex="1" parent="WIyWlLk6GJQsqaUBKTNV-1">
          <mxGeometry x="920" y="718" width="100" height="80" as="geometry" />
        </mxCell>
        <mxCell id="veHXGxF6ui8OIQlb3t_M-34" value="&lt;p class=&quot;p1&quot; style=&quot;margin: 0px ; font-stretch: normal ; line-height: normal&quot;&gt;&lt;span class=&quot;s1&quot; style=&quot;color: rgb(128 , 0 , 0)&quot;&gt;&lt;b&gt;Insert&lt;/b&gt;&lt;/span&gt; &lt;span class=&quot;s1&quot; style=&quot;color: rgb(128 , 0 , 0)&quot;&gt;&lt;b&gt;Into&lt;/b&gt;&lt;/span&gt; tsk_tracking_log&lt;/p&gt;" style="rounded=1;whiteSpace=wrap;html=1;fontSize=12;glass=0;strokeWidth=1;shadow=0;" vertex="1" parent="WIyWlLk6GJQsqaUBKTNV-1">
          <mxGeometry x="693.5" y="1032.5" width="153" height="65" as="geometry" />
        </mxCell>
        <mxCell id="veHXGxF6ui8OIQlb3t_M-50" value="&lt;p class=&quot;p1&quot; style=&quot;margin: 0px ; font-stretch: normal ; line-height: normal&quot;&gt;&lt;span class=&quot;s1&quot; style=&quot;color: rgb(128 , 0 , 0)&quot;&gt;&lt;b&gt;Insert&lt;/b&gt;&lt;/span&gt; &lt;span class=&quot;s1&quot; style=&quot;color: rgb(128 , 0 , 0)&quot;&gt;&lt;b&gt;Into&lt;/b&gt;&lt;/span&gt; tsk_tracking_log&lt;/p&gt;" style="rounded=1;whiteSpace=wrap;html=1;fontSize=12;glass=0;strokeWidth=1;shadow=0;" vertex="1" parent="WIyWlLk6GJQsqaUBKTNV-1">
          <mxGeometry x="814" y="553.5" width="153" height="65" as="geometry" />
        </mxCell>
        <mxCell id="veHXGxF6ui8OIQlb3t_M-57" style="edgeStyle=orthogonalEdgeStyle;rounded=0;orthogonalLoop=1;jettySize=auto;html=1;entryX=0;entryY=0.5;entryDx=0;entryDy=0;" edge="1" parent="WIyWlLk6GJQsqaUBKTNV-1" source="veHXGxF6ui8OIQlb3t_M-52" target="veHXGxF6ui8OIQlb3t_M-29">
          <mxGeometry relative="1" as="geometry" />
        </mxCell>
        <mxCell id="veHXGxF6ui8OIQlb3t_M-58" value="Yes" style="edgeLabel;html=1;align=center;verticalAlign=middle;resizable=0;points=[];" vertex="1" connectable="0" parent="veHXGxF6ui8OIQlb3t_M-57">
          <mxGeometry x="-0.245" relative="1" as="geometry">
            <mxPoint as="offset" />
          </mxGeometry>
        </mxCell>
        <mxCell id="veHXGxF6ui8OIQlb3t_M-52" value="&lt;p class=&quot;p1&quot; style=&quot;margin: 0px ; font-stretch: normal ; line-height: normal ; color: rgb(0 , 128 , 0)&quot;&gt;&lt;span class=&quot;s1&quot; style=&quot;color: rgb(0 , 0 , 0)&quot;&gt;全部已发运（&lt;/span&gt;&lt;/p&gt;&lt;p class=&quot;p1&quot; style=&quot;margin: 0px ; font-stretch: normal ; line-height: normal ; color: rgb(0 , 128 , 0)&quot;&gt;&lt;span style=&quot;color: rgb(0 , 0 , 0)&quot;&gt;outbound_time不为空&lt;/span&gt;&lt;/p&gt;&lt;p class=&quot;p1&quot; style=&quot;margin: 0px ; font-stretch: normal ; line-height: normal ; color: rgb(0 , 128 , 0)&quot;&gt;&lt;span class=&quot;s1&quot; style=&quot;color: rgb(0 , 0 , 0)&quot;&gt;）&lt;/span&gt;&lt;/p&gt;" style="rhombus;whiteSpace=wrap;html=1;shadow=0;fontFamily=Helvetica;fontSize=12;align=center;strokeWidth=1;spacing=6;spacingTop=-4;" vertex="1" parent="WIyWlLk6GJQsqaUBKTNV-1">
          <mxGeometry x="-378" y="543" width="110" height="85" as="geometry" />
        </mxCell>
        <mxCell id="veHXGxF6ui8OIQlb3t_M-62" style="edgeStyle=orthogonalEdgeStyle;rounded=0;orthogonalLoop=1;jettySize=auto;html=1;" edge="1" parent="WIyWlLk6GJQsqaUBKTNV-1" source="veHXGxF6ui8OIQlb3t_M-59" target="veHXGxF6ui8OIQlb3t_M-61">
          <mxGeometry relative="1" as="geometry" />
        </mxCell>
        <mxCell id="veHXGxF6ui8OIQlb3t_M-59" value="遍历完成修改&lt;span&gt;tms_readflag&lt;/span&gt;" style="rounded=1;whiteSpace=wrap;html=1;fontSize=12;glass=0;strokeWidth=1;shadow=0;" vertex="1" parent="WIyWlLk6GJQsqaUBKTNV-1">
          <mxGeometry x="540" y="247.5" width="120" height="40" as="geometry" />
        </mxCell>
        <mxCell id="veHXGxF6ui8OIQlb3t_M-66" value="No" style="edgeStyle=orthogonalEdgeStyle;rounded=0;orthogonalLoop=1;jettySize=auto;html=1;" edge="1" parent="WIyWlLk6GJQsqaUBKTNV-1" source="veHXGxF6ui8OIQlb3t_M-61" target="veHXGxF6ui8OIQlb3t_M-63">
          <mxGeometry relative="1" as="geometry" />
        </mxCell>
        <mxCell id="veHXGxF6ui8OIQlb3t_M-68" value="No" style="edgeStyle=orthogonalEdgeStyle;rounded=0;orthogonalLoop=1;jettySize=auto;html=1;entryX=0.5;entryY=0;entryDx=0;entryDy=0;" edge="1" parent="WIyWlLk6GJQsqaUBKTNV-1" source="veHXGxF6ui8OIQlb3t_M-61" target="veHXGxF6ui8OIQlb3t_M-67">
          <mxGeometry relative="1" as="geometry" />
        </mxCell>
        <mxCell id="veHXGxF6ui8OIQlb3t_M-61" value="是否运输的第一段" style="rhombus;whiteSpace=wrap;html=1;shadow=0;fontFamily=Helvetica;fontSize=12;align=center;strokeWidth=1;spacing=6;spacingTop=-4;" vertex="1" parent="WIyWlLk6GJQsqaUBKTNV-1">
          <mxGeometry x="770" y="227.5" width="100" height="80" as="geometry" />
        </mxCell>
        <mxCell id="veHXGxF6ui8OIQlb3t_M-69" value="" style="edgeStyle=orthogonalEdgeStyle;rounded=0;orthogonalLoop=1;jettySize=auto;html=1;" edge="1" parent="WIyWlLk6GJQsqaUBKTNV-1" source="veHXGxF6ui8OIQlb3t_M-63" target="veHXGxF6ui8OIQlb3t_M-61">
          <mxGeometry relative="1" as="geometry" />
        </mxCell>
        <mxCell id="veHXGxF6ui8OIQlb3t_M-70" value="Yes" style="edgeLabel;html=1;align=center;verticalAlign=middle;resizable=0;points=[];" vertex="1" connectable="0" parent="veHXGxF6ui8OIQlb3t_M-69">
          <mxGeometry relative="1" as="geometry">
            <mxPoint as="offset" />
          </mxGeometry>
        </mxCell>
        <mxCell id="veHXGxF6ui8OIQlb3t_M-63" value="end" style="rounded=1;whiteSpace=wrap;html=1;fontSize=12;glass=0;strokeWidth=1;shadow=0;" vertex="1" parent="WIyWlLk6GJQsqaUBKTNV-1">
          <mxGeometry x="940" y="247.5" width="120" height="40" as="geometry" />
        </mxCell>
        <mxCell id="veHXGxF6ui8OIQlb3t_M-65" style="edgeStyle=orthogonalEdgeStyle;rounded=0;orthogonalLoop=1;jettySize=auto;html=1;" edge="1" parent="WIyWlLk6GJQsqaUBKTNV-1" source="veHXGxF6ui8OIQlb3t_M-64" target="veHXGxF6ui8OIQlb3t_M-0">
          <mxGeometry relative="1" as="geometry" />
        </mxCell>
        <mxCell id="veHXGxF6ui8OIQlb3t_M-64" value="start" style="rounded=1;whiteSpace=wrap;html=1;fontSize=12;glass=0;strokeWidth=1;shadow=0;" vertex="1" parent="WIyWlLk6GJQsqaUBKTNV-1">
          <mxGeometry x="328" y="120" width="120" height="40" as="geometry" />
        </mxCell>
        <mxCell id="veHXGxF6ui8OIQlb3t_M-71" style="edgeStyle=orthogonalEdgeStyle;rounded=0;orthogonalLoop=1;jettySize=auto;html=1;entryX=0.5;entryY=1;entryDx=0;entryDy=0;" edge="1" parent="WIyWlLk6GJQsqaUBKTNV-1" source="veHXGxF6ui8OIQlb3t_M-67" target="veHXGxF6ui8OIQlb3t_M-63">
          <mxGeometry relative="1" as="geometry" />
        </mxCell>
        <mxCell id="veHXGxF6ui8OIQlb3t_M-67" value="合并前面的N段路由信息到Header并且tms_readflag=Y&lt;br&gt;&amp;nbsp;" style="rounded=1;whiteSpace=wrap;html=1;fontSize=12;glass=0;strokeWidth=1;shadow=0;" vertex="1" parent="WIyWlLk6GJQsqaUBKTNV-1">
          <mxGeometry x="760" y="391" width="120" height="40" as="geometry" />
        </mxCell>
      </root>
    </mxGraphModel>
  </diagram>
</mxfile>
